<svg xmlns="http://www.w3.org/2000/svg" viewBox="0 0 24 24" width="32" height="32" role="img" aria-label="Family Link Alerts">
  <rect x="0" y="0" width="24" height="24" rx="6" fill="#e2762f"/>
  <path d="M20 13c0 5-3.5 7.5-7.66 8.95a1 1 0 0 1-.67-.01C7.5 20.5 4 18 4 13V6a1 1 0 0 1 1-1c2 0 4.5-1.2 6.24-2.72a1.17 1.17 0 0 1 1.52 0C14.51 3.81 17 5 19 5a1 1 0 0 1 1 1z"
        fill="none" stroke="#fff8f0" stroke-width="1.6" stroke-linecap="round" stroke-linejoin="round" transform="translate(0,-0.3) scale(0.92)" />
</svg>
